<?xml version="1.0" encoding="utf-8"?>
<!-- Generator: Adobe Illustrator 27.7.0, SVG Export Plug-In . SVG Version: 6.00 Build 0)  -->
<svg version="1.1" id="Capa_1" xmlns="http://www.w3.org/2000/svg" xmlns:xlink="http://www.w3.org/1999/xlink" x="0px" y="0px"
	 viewBox="0 0 203 203" style="enable-background:new 0 0 203 203;" xml:space="preserve">
<style type="text/css">
	.st0{fill:#FF0068;}
</style>
<g id="SVGRepo_iconCarrier">
	<g>
		<path class="st0" d="M154,134c-2.8,3.8-5.8,7.4-9.2,10.8c-3.4,3.4-7,6.5-10.8,9.2l47.3,47.3c2.2,2.2,5.8,2.2,8,0l12-12
			c2.2-2.2,2.2-5.8,0-8L154,134z"/>
		<path class="st0" d="M82.5,164.9c17.7,0,34-5.5,47.4-15c7.8-5.5,14.6-12.3,20.1-20.1c9.4-13.4,15-29.8,15-47.4
			C164.9,36.9,128,0,82.5,0S0,36.9,0,82.5C0,128,36.9,164.9,82.5,164.9z M41.6,75.6c0-2.5,2-4.5,4.5-4.5h20.8h4.3v-4.3V46
			c0-2.5,2-4.5,4.5-4.5h13.6c2.5,0,4.5,2,4.5,4.5v25.1h25.1c2.5,0,4.5,2,4.5,4.5v13.6c0,2.5-2,4.5-4.5,4.5h-5.1H93.9v20.2v4.9
			c0,2.5-2,4.5-4.5,4.5H75.7c-2.5,0-4.5-2-4.5-4.5V93.7H46.1c-2.5,0-4.5-2-4.5-4.5V75.6L41.6,75.6z"/>
	</g>
</g>
</svg>
